<svg width="21" height="28" viewBox="0 0 21 28" fill="none" xmlns="http://www.w3.org/2000/svg">
<g clip-path="url(#clip0_6460_119)">
<g filter="url(#filter0_i_6460_119)">
<path fill-rule="evenodd" clip-rule="evenodd" d="M0.875 9.9709C0.875 4.5529 5.17875 0.170898 10.5 0.170898C15.8212 0.170898 20.125 4.5529 20.125 9.9709C20.125 15.8089 14.0475 23.8589 11.5588 26.9249C11.0088 27.5969 10.005 27.5969 9.455 26.9249C6.9525 23.8589 0.875 15.8089 0.875 9.9709ZM7.0625 9.9709C7.0625 11.9029 8.6025 13.4709 10.5 13.4709C12.3975 13.4709 13.9375 11.9029 13.9375 9.9709C13.9375 8.0389 12.3975 6.4709 10.5 6.4709C8.6025 6.4709 7.0625 8.0389 7.0625 9.9709Z" fill="#39AC03"/>
</g>
</g>
<defs>
<filter id="filter0_i_6460_119" x="0.875" y="0.170898" width="19.25" height="29.2581" filterUnits="userSpaceOnUse" color-interpolation-filters="sRGB">
<feFlood flood-opacity="0" result="BackgroundImageFix"/>
<feBlend mode="normal" in="SourceGraphic" in2="BackgroundImageFix" result="shape"/>
<feColorMatrix in="SourceAlpha" type="matrix" values="0 0 0 0 0 0 0 0 0 0 0 0 0 0 0 0 0 0 127 0" result="hardAlpha"/>
<feOffset dy="2"/>
<feGaussianBlur stdDeviation="1"/>
<feComposite in2="hardAlpha" operator="arithmetic" k2="-1" k3="1"/>
<feColorMatrix type="matrix" values="0 0 0 0 0 0 0 0 0 0 0 0 0 0 0 0 0 0 0.5 0"/>
<feBlend mode="normal" in2="shape" result="effect1_innerShadow_6460_119"/>
</filter>
<clipPath id="clip0_6460_119">
<rect width="21" height="28" fill="white"/>
</clipPath>
</defs>
</svg>
