<svg width="34" height="29" viewBox="0 0 34 29" fill="none" xmlns="http://www.w3.org/2000/svg">
<path d="M13.2784 5.70003C14.727 4.9347 16.3859 4.50011 18.1489 4.50011C20.2656 4.50011 22.232 5.12712 23.8649 6.20058C21.5193 3.62905 18.1119 2 14.3068 2C7.2339 2 1.5 7.59651 1.5 14.5001C1.5 21.4035 7.2339 27 14.3068 27C18.1119 27 21.5191 25.3709 23.8648 22.7996C22.2318 23.873 20.2655 24.5 18.1489 24.5C12.4904 24.5 7.90331 20.0228 7.90331 14.5001C7.90331 12.5531 8.4735 10.736 9.45972 9.19922" stroke="white" stroke-width="2.39645" stroke-miterlimit="10" stroke-linecap="round" stroke-linejoin="round"/>
<path d="M29.2462 11.3359V14.6753M29.2462 14.6753L32.5 13.6433M29.2462 14.6753L31.2572 17.3767M29.2462 14.6753L27.2353 17.3767M29.2462 14.6753L25.9925 13.6433" stroke="white" stroke-width="2.39645" stroke-miterlimit="10" stroke-linecap="round" stroke-linejoin="round"/>
</svg>
